<svg width="376" height="18" viewBox="0 0 376 18" fill="none" xmlns="http://www.w3.org/2000/svg">
<path d="M8.248 5.288C8.248 5.88533 8.104 6.44533 7.816 6.968C7.53867 7.49067 7.096 7.912 6.488 8.232C5.89067 8.552 5.13333 8.712 4.216 8.712H2.344V13H0.104V1.832H4.216C5.08 1.832 5.816 1.98133 6.424 2.28C7.032 2.57867 7.48533 2.98933 7.784 3.512C8.09333 4.03467 8.248 4.62667 8.248 5.288ZM4.12 6.904C4.73867 6.904 5.19733 6.76533 5.496 6.488C5.79467 6.2 5.944 5.8 5.944 5.288C5.944 4.2 5.336 3.656 4.12 3.656H2.344V6.904H4.12ZM12.0784 5.512C12.3664 5.04267 12.7397 4.67467 13.1984 4.408C13.6677 4.14133 14.201 4.008 14.7984 4.008V6.36H14.2064C13.5024 6.36 12.969 6.52533 12.6064 6.856C12.2544 7.18667 12.0784 7.76267 12.0784 8.584V13H9.83838V4.136H12.0784V5.512ZM20.2431 13.144C19.3898 13.144 18.6218 12.9573 17.9391 12.584C17.2565 12.2 16.7178 11.6613 16.3231 10.968C15.9391 10.2747 15.7471 9.47467 15.7471 8.568C15.7471 7.66133 15.9445 6.86133 16.3391 6.168C16.7445 5.47467 17.2938 4.94133 17.9871 4.568C18.6805 4.184 19.4538 3.992 20.3071 3.992C21.1605 3.992 21.9338 4.184 22.6271 4.568C23.3205 4.94133 23.8645 5.47467 24.2591 6.168C24.6645 6.86133 24.8671 7.66133 24.8671 8.568C24.8671 9.47467 24.6591 10.2747 24.2431 10.968C23.8378 11.6613 23.2831 12.2 22.5791 12.584C21.8858 12.9573 21.1071 13.144 20.2431 13.144ZM20.2431 11.192C20.6485 11.192 21.0271 11.096 21.3791 10.904C21.7418 10.7013 22.0298 10.4027 22.2431 10.008C22.4565 9.61333 22.5631 9.13333 22.5631 8.568C22.5631 7.72533 22.3391 7.08 21.8911 6.632C21.4538 6.17333 20.9151 5.944 20.2751 5.944C19.6351 5.944 19.0965 6.17333 18.6591 6.632C18.2325 7.08 18.0191 7.72533 18.0191 8.568C18.0191 9.41067 18.2271 10.0613 18.6431 10.52C19.0698 10.968 19.6031 11.192 20.2431 11.192ZM25.9342 8.536C25.9342 7.64 26.1102 6.84533 26.4622 6.152C26.8249 5.45867 27.3156 4.92533 27.9343 4.552C28.5529 4.17867 29.2409 3.992 29.9983 3.992C30.5743 3.992 31.1236 4.12 31.6463 4.376C32.1689 4.62133 32.5849 4.952 32.8943 5.368V1.16H35.1663V13H32.8943V11.688C32.6169 12.1253 32.2276 12.4773 31.7263 12.744C31.2249 13.0107 30.6436 13.144 29.9823 13.144C29.2356 13.144 28.5529 12.952 27.9343 12.568C27.3156 12.184 26.8249 11.6453 26.4622 10.952C26.1102 10.248 25.9342 9.44267 25.9342 8.536ZM32.9103 8.568C32.9103 8.024 32.8036 7.56 32.5903 7.176C32.3769 6.78133 32.0889 6.48267 31.7263 6.28C31.3636 6.06667 30.9743 5.96 30.5583 5.96C30.1423 5.96 29.7583 6.06133 29.4062 6.264C29.0543 6.46667 28.7663 6.76533 28.5423 7.16C28.3289 7.544 28.2223 8.00267 28.2223 8.536C28.2223 9.06933 28.3289 9.53867 28.5423 9.944C28.7663 10.3387 29.0543 10.6427 29.4062 10.856C29.7689 11.0693 30.1529 11.176 30.5583 11.176C30.9743 11.176 31.3636 11.0747 31.7263 10.872C32.0889 10.6587 32.3769 10.36 32.5903 9.976C32.8036 9.58133 32.9103 9.112 32.9103 8.568ZM45.722 4.136V13H43.466V11.88C43.178 12.264 42.7993 12.568 42.33 12.792C41.8713 13.0053 41.37 13.112 40.826 13.112C40.1327 13.112 39.5193 12.968 38.986 12.68C38.4527 12.3813 38.0313 11.9493 37.722 11.384C37.4233 10.808 37.274 10.1253 37.274 9.336V4.136H39.514V9.016C39.514 9.72 39.69 10.264 40.042 10.648C40.394 11.0213 40.874 11.208 41.482 11.208C42.1007 11.208 42.586 11.0213 42.938 10.648C43.29 10.264 43.466 9.72 43.466 9.016V4.136H45.722ZM47.3561 8.568C47.3561 7.65067 47.5428 6.85067 47.9161 6.168C48.2895 5.47467 48.8068 4.94133 49.4681 4.568C50.1295 4.184 50.8868 3.992 51.7401 3.992C52.8388 3.992 53.7455 4.26933 54.4601 4.824C55.1855 5.368 55.6708 6.136 55.9161 7.128H53.5001C53.3721 6.744 53.1535 6.44533 52.8441 6.232C52.5455 6.008 52.1721 5.896 51.7241 5.896C51.0841 5.896 50.5775 6.13067 50.2041 6.6C49.8308 7.05867 49.6441 7.71467 49.6441 8.568C49.6441 9.41067 49.8308 10.0667 50.2041 10.536C50.5775 10.9947 51.0841 11.224 51.7241 11.224C52.6308 11.224 53.2228 10.8187 53.5001 10.008H55.9161C55.6708 10.968 55.1855 11.7307 54.4601 12.296C53.7348 12.8613 52.8281 13.144 51.7401 13.144C50.8868 13.144 50.1295 12.9573 49.4681 12.584C48.8068 12.2 48.2895 11.6667 47.9161 10.984C47.5428 10.2907 47.3561 9.48533 47.3561 8.568ZM60.1651 5.976V10.264C60.1651 10.5627 60.2345 10.7813 60.3731 10.92C60.5225 11.048 60.7678 11.112 61.1091 11.112H62.1491V13H60.7411C58.8531 13 57.9091 12.0827 57.9091 10.248V5.976H56.8531V4.136H57.9091V1.944H60.1651V4.136H62.1491V5.976H60.1651ZM93.0943 7.416C93.0943 6.328 93.3396 5.352 93.8303 4.488C94.3209 3.61333 94.9876 2.93067 95.8303 2.44C96.6836 1.94933 97.6276 1.704 98.6623 1.704C99.8783 1.704 100.94 1.99733 101.846 2.584C102.753 3.17067 103.414 4.00267 103.83 5.08H102.086C101.777 4.408 101.329 3.89067 100.742 3.528C100.166 3.16533 99.4729 2.984 98.6623 2.984C97.8836 2.984 97.1849 3.16533 96.5663 3.528C95.9476 3.89067 95.4623 4.408 95.1103 5.08C94.7583 5.74133 94.5823 6.52 94.5823 7.416C94.5823 8.30133 94.7583 9.08 95.1103 9.752C95.4623 10.4133 95.9476 10.9253 96.5663 11.288C97.1849 11.6507 97.8836 11.832 98.6623 11.832C99.4729 11.832 100.166 11.656 100.742 11.304C101.329 10.9413 101.777 10.424 102.086 9.752H103.83C103.414 10.8187 102.753 11.6453 101.846 12.232C100.94 12.808 99.8783 13.096 98.6623 13.096C97.6276 13.096 96.6836 12.856 95.8303 12.376C94.9876 11.8853 94.3209 11.208 93.8303 10.344C93.3396 9.48 93.0943 8.504 93.0943 7.416ZM113.774 4.232V13H112.318V11.704C112.04 12.152 111.651 12.504 111.15 12.76C110.659 13.0053 110.115 13.128 109.518 13.128C108.835 13.128 108.222 12.9893 107.678 12.712C107.134 12.424 106.702 11.9973 106.382 11.432C106.072 10.8667 105.918 10.1787 105.918 9.368V4.232H107.358V9.176C107.358 10.04 107.576 10.7067 108.014 11.176C108.451 11.6347 109.048 11.864 109.806 11.864C110.584 11.864 111.198 11.624 111.646 11.144C112.094 10.664 112.318 9.96533 112.318 9.048V4.232H113.774ZM119.336 13.144C118.664 13.144 118.061 13.032 117.528 12.808C116.995 12.5733 116.573 12.2533 116.264 11.848C115.955 11.432 115.784 10.9573 115.752 10.424H117.256C117.299 10.8613 117.501 11.2187 117.864 11.496C118.237 11.7733 118.723 11.912 119.32 11.912C119.875 11.912 120.312 11.7893 120.632 11.544C120.952 11.2987 121.112 10.9893 121.112 10.616C121.112 10.232 120.941 9.94933 120.6 9.768C120.259 9.576 119.731 9.38933 119.016 9.208C118.365 9.03733 117.832 8.86667 117.416 8.696C117.011 8.51467 116.659 8.25333 116.36 7.912C116.072 7.56 115.928 7.10133 115.928 6.536C115.928 6.088 116.061 5.67733 116.328 5.304C116.595 4.93067 116.973 4.63733 117.464 4.424C117.955 4.2 118.515 4.088 119.144 4.088C120.115 4.088 120.899 4.33333 121.496 4.824C122.093 5.31467 122.413 5.98667 122.456 6.84H121C120.968 6.38133 120.781 6.01333 120.44 5.736C120.109 5.45867 119.661 5.32 119.096 5.32C118.573 5.32 118.157 5.432 117.848 5.656C117.539 5.88 117.384 6.17333 117.384 6.536C117.384 6.824 117.475 7.064 117.656 7.256C117.848 7.43733 118.083 7.58667 118.36 7.704C118.648 7.81067 119.043 7.93333 119.544 8.072C120.173 8.24267 120.685 8.41333 121.08 8.584C121.475 8.744 121.811 8.98933 122.088 9.32C122.376 9.65067 122.525 10.0827 122.536 10.616C122.536 11.096 122.403 11.528 122.136 11.912C121.869 12.296 121.491 12.6 121 12.824C120.52 13.0373 119.965 13.144 119.336 13.144ZM126.367 5.432V10.6C126.367 11.0267 126.458 11.3307 126.639 11.512C126.821 11.6827 127.135 11.768 127.583 11.768H128.655V13H127.343C126.533 13 125.925 12.8133 125.519 12.44C125.114 12.0667 124.911 11.4533 124.911 10.6V5.432H123.775V4.232H124.911V2.024H126.367V4.232H128.655V5.432H126.367ZM134.244 13.144C133.422 13.144 132.676 12.9573 132.004 12.584C131.342 12.2107 130.82 11.6827 130.436 11C130.062 10.3067 129.876 9.50667 129.876 8.6C129.876 7.704 130.068 6.91467 130.452 6.232C130.846 5.53867 131.38 5.01067 132.052 4.648C132.724 4.27467 133.476 4.088 134.308 4.088C135.14 4.088 135.892 4.27467 136.564 4.648C137.236 5.01067 137.764 5.53333 138.148 6.216C138.542 6.89867 138.74 7.69333 138.74 8.6C138.74 9.50667 138.537 10.3067 138.132 11C137.737 11.6827 137.198 12.2107 136.516 12.584C135.833 12.9573 135.076 13.144 134.244 13.144ZM134.244 11.864C134.766 11.864 135.257 11.7413 135.716 11.496C136.174 11.2507 136.542 10.8827 136.82 10.392C137.108 9.90133 137.252 9.304 137.252 8.6C137.252 7.896 137.113 7.29867 136.836 6.808C136.558 6.31733 136.196 5.95467 135.748 5.72C135.3 5.47467 134.814 5.352 134.292 5.352C133.758 5.352 133.268 5.47467 132.82 5.72C132.382 5.95467 132.03 6.31733 131.764 6.808C131.497 7.29867 131.364 7.896 131.364 8.6C131.364 9.31467 131.492 9.91733 131.748 10.408C132.014 10.8987 132.366 11.2667 132.804 11.512C133.241 11.7467 133.721 11.864 134.244 11.864ZM151.198 4.072C151.881 4.072 152.489 4.216 153.022 4.504C153.555 4.78133 153.977 5.20267 154.286 5.768C154.595 6.33333 154.75 7.02133 154.75 7.832V13H153.31V8.04C153.31 7.16533 153.091 6.49867 152.654 6.04C152.227 5.57067 151.646 5.336 150.91 5.336C150.153 5.336 149.55 5.58133 149.102 6.072C148.654 6.552 148.43 7.25067 148.43 8.168V13H146.99V8.04C146.99 7.16533 146.771 6.49867 146.334 6.04C145.907 5.57067 145.326 5.336 144.59 5.336C143.833 5.336 143.23 5.58133 142.782 6.072C142.334 6.552 142.11 7.25067 142.11 8.168V13H140.654V4.232H142.11V5.496C142.398 5.03733 142.782 4.68533 143.262 4.44C143.753 4.19467 144.291 4.072 144.878 4.072C145.614 4.072 146.265 4.23733 146.83 4.568C147.395 4.89867 147.817 5.384 148.094 6.024C148.339 5.40533 148.745 4.92533 149.31 4.584C149.875 4.24267 150.505 4.072 151.198 4.072ZM165.138 8.28C165.138 8.55733 165.122 8.85067 165.09 9.16H158.082C158.136 10.024 158.429 10.7013 158.962 11.192C159.506 11.672 160.162 11.912 160.93 11.912C161.56 11.912 162.082 11.768 162.498 11.48C162.925 11.1813 163.224 10.7867 163.394 10.296H164.962C164.728 11.1387 164.258 11.8267 163.554 12.36C162.85 12.8827 161.976 13.144 160.93 13.144C160.098 13.144 159.352 12.9573 158.69 12.584C158.04 12.2107 157.528 11.6827 157.154 11C156.781 10.3067 156.594 9.50667 156.594 8.6C156.594 7.69333 156.776 6.89867 157.138 6.216C157.501 5.53333 158.008 5.01067 158.658 4.648C159.32 4.27467 160.077 4.088 160.93 4.088C161.762 4.088 162.498 4.26933 163.138 4.632C163.778 4.99467 164.269 5.496 164.61 6.136C164.962 6.76533 165.138 7.48 165.138 8.28ZM163.634 7.976C163.634 7.42133 163.512 6.94667 163.266 6.552C163.021 6.14667 162.685 5.84267 162.258 5.64C161.842 5.42667 161.378 5.32 160.866 5.32C160.13 5.32 159.501 5.55467 158.978 6.024C158.466 6.49333 158.173 7.144 158.098 7.976H163.634ZM168.516 5.656C168.772 5.15467 169.135 4.76533 169.604 4.488C170.084 4.21067 170.665 4.072 171.348 4.072V5.576H170.964C169.332 5.576 168.516 6.46133 168.516 8.232V13H167.06V4.232H168.516V5.656ZM176.133 13.144C175.461 13.144 174.858 13.032 174.325 12.808C173.792 12.5733 173.37 12.2533 173.061 11.848C172.752 11.432 172.581 10.9573 172.549 10.424H174.053C174.096 10.8613 174.298 11.2187 174.661 11.496C175.034 11.7733 175.52 11.912 176.117 11.912C176.672 11.912 177.109 11.7893 177.429 11.544C177.749 11.2987 177.909 10.9893 177.909 10.616C177.909 10.232 177.738 9.94933 177.397 9.768C177.056 9.576 176.528 9.38933 175.813 9.208C175.162 9.03733 174.629 8.86667 174.213 8.696C173.808 8.51467 173.456 8.25333 173.157 7.912C172.869 7.56 172.725 7.10133 172.725 6.536C172.725 6.088 172.858 5.67733 173.125 5.304C173.392 4.93067 173.77 4.63733 174.261 4.424C174.752 4.2 175.312 4.088 175.941 4.088C176.912 4.088 177.696 4.33333 178.293 4.824C178.89 5.31467 179.21 5.98667 179.253 6.84H177.797C177.765 6.38133 177.578 6.01333 177.237 5.736C176.906 5.45867 176.458 5.32 175.893 5.32C175.37 5.32 174.954 5.432 174.645 5.656C174.336 5.88 174.181 6.17333 174.181 6.536C174.181 6.824 174.272 7.064 174.453 7.256C174.645 7.43733 174.88 7.58667 175.157 7.704C175.445 7.81067 175.84 7.93333 176.341 8.072C176.97 8.24267 177.482 8.41333 177.877 8.584C178.272 8.744 178.608 8.98933 178.885 9.32C179.173 9.65067 179.322 10.0827 179.333 10.616C179.333 11.096 179.2 11.528 178.933 11.912C178.666 12.296 178.288 12.6 177.797 12.824C177.317 13.0373 176.762 13.144 176.133 13.144ZM218.704 5.112C218.704 6.04 218.384 6.81333 217.744 7.432C217.114 8.04 216.149 8.344 214.848 8.344H212.704V13H211.248V1.848H214.848C216.106 1.848 217.061 2.152 217.712 2.76C218.373 3.368 218.704 4.152 218.704 5.112ZM214.848 7.144C215.658 7.144 216.256 6.968 216.64 6.616C217.024 6.264 217.216 5.76267 217.216 5.112C217.216 3.736 216.426 3.048 214.848 3.048H212.704V7.144H214.848ZM221.969 5.656C222.225 5.15467 222.588 4.76533 223.057 4.488C223.537 4.21067 224.119 4.072 224.801 4.072V5.576H224.417C222.785 5.576 221.969 6.46133 221.969 8.232V13H220.513V4.232H221.969V5.656ZM227.234 2.808C226.957 2.808 226.722 2.712 226.53 2.52C226.338 2.328 226.242 2.09333 226.242 1.816C226.242 1.53867 226.338 1.304 226.53 1.112C226.722 0.919999 226.957 0.823999 227.234 0.823999C227.501 0.823999 227.725 0.919999 227.906 1.112C228.098 1.304 228.194 1.53867 228.194 1.816C228.194 2.09333 228.098 2.328 227.906 2.52C227.725 2.712 227.501 2.808 227.234 2.808ZM227.938 4.232V13H226.482V4.232H227.938ZM229.876 8.6C229.876 7.69333 230.057 6.904 230.42 6.232C230.782 5.54933 231.284 5.02133 231.924 4.648C232.574 4.27467 233.316 4.088 234.148 4.088C235.225 4.088 236.11 4.34933 236.804 4.872C237.508 5.39467 237.972 6.12 238.196 7.048H236.628C236.478 6.51467 236.185 6.09333 235.748 5.784C235.321 5.47467 234.788 5.32 234.148 5.32C233.316 5.32 232.644 5.608 232.132 6.184C231.62 6.74933 231.364 7.55467 231.364 8.6C231.364 9.656 231.62 10.472 232.132 11.048C232.644 11.624 233.316 11.912 234.148 11.912C234.788 11.912 235.321 11.7627 235.748 11.464C236.174 11.1653 236.468 10.7387 236.628 10.184H238.196C237.961 11.08 237.492 11.8 236.788 12.344C236.084 12.8773 235.204 13.144 234.148 13.144C233.316 13.144 232.574 12.9573 231.924 12.584C231.284 12.2107 230.782 11.6827 230.42 11C230.057 10.3173 229.876 9.51733 229.876 8.6ZM240.89 2.808C240.613 2.808 240.378 2.712 240.186 2.52C239.994 2.328 239.898 2.09333 239.898 1.816C239.898 1.53867 239.994 1.304 240.186 1.112C240.378 0.919999 240.613 0.823999 240.89 0.823999C241.157 0.823999 241.381 0.919999 241.562 1.112C241.754 1.304 241.85 1.53867 241.85 1.816C241.85 2.09333 241.754 2.328 241.562 2.52C241.381 2.712 241.157 2.808 240.89 2.808ZM241.594 4.232V13H240.138V4.232H241.594ZM248.348 4.072C249.414 4.072 250.278 4.39733 250.94 5.048C251.601 5.688 251.932 6.616 251.932 7.832V13H250.492V8.04C250.492 7.16533 250.273 6.49867 249.836 6.04C249.398 5.57067 248.801 5.336 248.044 5.336C247.276 5.336 246.662 5.576 246.204 6.056C245.756 6.536 245.532 7.23467 245.532 8.152V13H244.076V4.232H245.532V5.48C245.82 5.032 246.209 4.68533 246.7 4.44C247.201 4.19467 247.75 4.072 248.348 4.072ZM257.926 4.088C258.683 4.088 259.345 4.25333 259.91 4.584C260.486 4.91467 260.913 5.33067 261.19 5.832V4.232H262.662V13.192C262.662 13.992 262.491 14.7013 262.15 15.32C261.809 15.9493 261.318 16.44 260.678 16.792C260.049 17.144 259.313 17.32 258.47 17.32C257.318 17.32 256.358 17.048 255.59 16.504C254.822 15.96 254.369 15.2187 254.23 14.28H255.67C255.83 14.8133 256.161 15.24 256.662 15.56C257.163 15.8907 257.766 16.056 258.47 16.056C259.27 16.056 259.921 15.8053 260.422 15.304C260.934 14.8027 261.19 14.0987 261.19 13.192V11.352C260.902 11.864 260.475 12.2907 259.91 12.632C259.345 12.9733 258.683 13.144 257.926 13.144C257.147 13.144 256.438 12.952 255.798 12.568C255.169 12.184 254.673 11.6453 254.31 10.952C253.947 10.2587 253.766 9.46933 253.766 8.584C253.766 7.688 253.947 6.904 254.31 6.232C254.673 5.54933 255.169 5.02133 255.798 4.648C256.438 4.27467 257.147 4.088 257.926 4.088ZM261.19 8.6C261.19 7.93867 261.057 7.36267 260.79 6.872C260.523 6.38133 260.161 6.008 259.702 5.752C259.254 5.48533 258.758 5.352 258.214 5.352C257.67 5.352 257.174 5.48 256.726 5.736C256.278 5.992 255.921 6.36533 255.654 6.856C255.387 7.34667 255.254 7.92267 255.254 8.584C255.254 9.256 255.387 9.84267 255.654 10.344C255.921 10.8347 256.278 11.2133 256.726 11.48C257.174 11.736 257.67 11.864 258.214 11.864C258.758 11.864 259.254 11.736 259.702 11.48C260.161 11.2133 260.523 10.8347 260.79 10.344C261.057 9.84267 261.19 9.26133 261.19 8.6ZM300.854 13L298.198 8.44H296.438V13H294.982V1.848H298.582C299.425 1.848 300.134 1.992 300.71 2.28C301.297 2.568 301.734 2.95733 302.022 3.448C302.31 3.93867 302.454 4.49867 302.454 5.128C302.454 5.896 302.23 6.57333 301.782 7.16C301.345 7.74667 300.683 8.136 299.798 8.328L302.598 13H300.854ZM296.438 7.272H298.582C299.371 7.272 299.963 7.08 300.358 6.696C300.753 6.30133 300.95 5.77867 300.95 5.128C300.95 4.46667 300.753 3.95467 300.358 3.592C299.974 3.22933 299.382 3.048 298.582 3.048H296.438V7.272ZM312.716 8.28C312.716 8.55733 312.7 8.85067 312.668 9.16H305.66C305.714 10.024 306.007 10.7013 306.54 11.192C307.084 11.672 307.74 11.912 308.508 11.912C309.138 11.912 309.66 11.768 310.076 11.48C310.503 11.1813 310.802 10.7867 310.972 10.296H312.54C312.306 11.1387 311.836 11.8267 311.132 12.36C310.428 12.8827 309.554 13.144 308.508 13.144C307.676 13.144 306.93 12.9573 306.268 12.584C305.618 12.2107 305.106 11.6827 304.732 11C304.359 10.3067 304.172 9.50667 304.172 8.6C304.172 7.69333 304.354 6.89867 304.716 6.216C305.079 5.53333 305.586 5.01067 306.236 4.648C306.898 4.27467 307.655 4.088 308.508 4.088C309.34 4.088 310.076 4.26933 310.716 4.632C311.356 4.99467 311.847 5.496 312.188 6.136C312.54 6.76533 312.716 7.48 312.716 8.28ZM311.212 7.976C311.212 7.42133 311.09 6.94667 310.844 6.552C310.599 6.14667 310.263 5.84267 309.836 5.64C309.42 5.42667 308.956 5.32 308.444 5.32C307.708 5.32 307.079 5.55467 306.556 6.024C306.044 6.49333 305.751 7.144 305.676 7.976H311.212ZM317.742 13.144C317.07 13.144 316.468 13.032 315.934 12.808C315.401 12.5733 314.98 12.2533 314.67 11.848C314.361 11.432 314.19 10.9573 314.158 10.424H315.662C315.705 10.8613 315.908 11.2187 316.27 11.496C316.644 11.7733 317.129 11.912 317.726 11.912C318.281 11.912 318.718 11.7893 319.038 11.544C319.358 11.2987 319.518 10.9893 319.518 10.616C319.518 10.232 319.348 9.94933 319.006 9.768C318.665 9.576 318.137 9.38933 317.422 9.208C316.772 9.03733 316.238 8.86667 315.822 8.696C315.417 8.51467 315.065 8.25333 314.766 7.912C314.478 7.56 314.334 7.10133 314.334 6.536C314.334 6.088 314.468 5.67733 314.734 5.304C315.001 4.93067 315.38 4.63733 315.87 4.424C316.361 4.2 316.921 4.088 317.55 4.088C318.521 4.088 319.305 4.33333 319.902 4.824C320.5 5.31467 320.82 5.98667 320.862 6.84H319.406C319.374 6.38133 319.188 6.01333 318.846 5.736C318.516 5.45867 318.068 5.32 317.502 5.32C316.98 5.32 316.564 5.432 316.254 5.656C315.945 5.88 315.79 6.17333 315.79 6.536C315.79 6.824 315.881 7.064 316.062 7.256C316.254 7.43733 316.489 7.58667 316.766 7.704C317.054 7.81067 317.449 7.93333 317.95 8.072C318.58 8.24267 319.092 8.41333 319.486 8.584C319.881 8.744 320.217 8.98933 320.494 9.32C320.782 9.65067 320.932 10.0827 320.942 10.616C320.942 11.096 320.809 11.528 320.542 11.912C320.276 12.296 319.897 12.6 319.406 12.824C318.926 13.0373 318.372 13.144 317.742 13.144ZM326.822 13.144C326 13.144 325.254 12.9573 324.582 12.584C323.92 12.2107 323.398 11.6827 323.014 11C322.64 10.3067 322.454 9.50667 322.454 8.6C322.454 7.704 322.646 6.91467 323.03 6.232C323.424 5.53867 323.958 5.01067 324.63 4.648C325.302 4.27467 326.054 4.088 326.886 4.088C327.718 4.088 328.47 4.27467 329.142 4.648C329.814 5.01067 330.342 5.53333 330.726 6.216C331.12 6.89867 331.318 7.69333 331.318 8.6C331.318 9.50667 331.115 10.3067 330.71 11C330.315 11.6827 329.776 12.2107 329.094 12.584C328.411 12.9573 327.654 13.144 326.822 13.144ZM326.822 11.864C327.344 11.864 327.835 11.7413 328.294 11.496C328.752 11.2507 329.12 10.8827 329.398 10.392C329.686 9.90133 329.83 9.304 329.83 8.6C329.83 7.896 329.691 7.29867 329.414 6.808C329.136 6.31733 328.774 5.95467 328.326 5.72C327.878 5.47467 327.392 5.352 326.87 5.352C326.336 5.352 325.846 5.47467 325.398 5.72C324.96 5.95467 324.608 6.31733 324.342 6.808C324.075 7.29867 323.942 7.896 323.942 8.6C323.942 9.31467 324.07 9.91733 324.326 10.408C324.592 10.8987 324.944 11.2667 325.382 11.512C325.819 11.7467 326.299 11.864 326.822 11.864ZM341.008 4.232V13H339.552V11.704C339.275 12.152 338.885 12.504 338.384 12.76C337.893 13.0053 337.349 13.128 336.752 13.128C336.069 13.128 335.456 12.9893 334.912 12.712C334.368 12.424 333.936 11.9973 333.616 11.432C333.307 10.8667 333.152 10.1787 333.152 9.368V4.232H334.592V9.176C334.592 10.04 334.811 10.7067 335.248 11.176C335.685 11.6347 336.283 11.864 337.04 11.864C337.819 11.864 338.432 11.624 338.88 11.144C339.328 10.664 339.552 9.96533 339.552 9.048V4.232H341.008ZM344.922 5.656C345.178 5.15467 345.541 4.76533 346.01 4.488C346.49 4.21067 347.072 4.072 347.754 4.072V5.576H347.37C345.738 5.576 344.922 6.46133 344.922 8.232V13H343.466V4.232H344.922V5.656ZM348.891 8.6C348.891 7.69333 349.072 6.904 349.435 6.232C349.798 5.54933 350.299 5.02133 350.939 4.648C351.59 4.27467 352.331 4.088 353.163 4.088C354.24 4.088 355.126 4.34933 355.819 4.872C356.523 5.39467 356.987 6.12 357.211 7.048H355.643C355.494 6.51467 355.2 6.09333 354.763 5.784C354.336 5.47467 353.803 5.32 353.163 5.32C352.331 5.32 351.659 5.608 351.147 6.184C350.635 6.74933 350.379 7.55467 350.379 8.6C350.379 9.656 350.635 10.472 351.147 11.048C351.659 11.624 352.331 11.912 353.163 11.912C353.803 11.912 354.336 11.7627 354.763 11.464C355.19 11.1653 355.483 10.7387 355.643 10.184H357.211C356.976 11.08 356.507 11.8 355.803 12.344C355.099 12.8773 354.219 13.144 353.163 13.144C352.331 13.144 351.59 12.9573 350.939 12.584C350.299 12.2107 349.798 11.6827 349.435 11C349.072 10.3173 348.891 9.51733 348.891 8.6ZM367.154 8.28C367.154 8.55733 367.138 8.85067 367.106 9.16H360.098C360.151 10.024 360.445 10.7013 360.978 11.192C361.522 11.672 362.178 11.912 362.946 11.912C363.575 11.912 364.098 11.768 364.514 11.48C364.941 11.1813 365.239 10.7867 365.41 10.296H366.978C366.743 11.1387 366.274 11.8267 365.57 12.36C364.866 12.8827 363.991 13.144 362.946 13.144C362.114 13.144 361.367 12.9573 360.706 12.584C360.055 12.2107 359.543 11.6827 359.17 11C358.797 10.3067 358.61 9.50667 358.61 8.6C358.61 7.69333 358.791 6.89867 359.154 6.216C359.517 5.53333 360.023 5.01067 360.674 4.648C361.335 4.27467 362.093 4.088 362.946 4.088C363.778 4.088 364.514 4.26933 365.154 4.632C365.794 4.99467 366.285 5.496 366.626 6.136C366.978 6.76533 367.154 7.48 367.154 8.28ZM365.65 7.976C365.65 7.42133 365.527 6.94667 365.282 6.552C365.037 6.14667 364.701 5.84267 364.274 5.64C363.858 5.42667 363.394 5.32 362.882 5.32C362.146 5.32 361.517 5.55467 360.994 6.024C360.482 6.49333 360.189 7.144 360.114 7.976H365.65ZM372.18 13.144C371.508 13.144 370.905 13.032 370.372 12.808C369.838 12.5733 369.417 12.2533 369.108 11.848C368.798 11.432 368.628 10.9573 368.596 10.424H370.1C370.142 10.8613 370.345 11.2187 370.708 11.496C371.081 11.7733 371.566 11.912 372.164 11.912C372.718 11.912 373.156 11.7893 373.476 11.544C373.796 11.2987 373.956 10.9893 373.956 10.616C373.956 10.232 373.785 9.94933 373.444 9.768C373.102 9.576 372.574 9.38933 371.86 9.208C371.209 9.03733 370.676 8.86667 370.26 8.696C369.854 8.51467 369.502 8.25333 369.204 7.912C368.916 7.56 368.772 7.10133 368.772 6.536C368.772 6.088 368.905 5.67733 369.172 5.304C369.438 4.93067 369.817 4.63733 370.308 4.424C370.798 4.2 371.358 4.088 371.988 4.088C372.958 4.088 373.742 4.33333 374.34 4.824C374.937 5.31467 375.257 5.98667 375.3 6.84H373.844C373.812 6.38133 373.625 6.01333 373.284 5.736C372.953 5.45867 372.505 5.32 371.94 5.32C371.417 5.32 371.001 5.432 370.692 5.656C370.382 5.88 370.228 6.17333 370.228 6.536C370.228 6.824 370.318 7.064 370.5 7.256C370.692 7.43733 370.926 7.58667 371.204 7.704C371.492 7.81067 371.886 7.93333 372.388 8.072C373.017 8.24267 373.529 8.41333 373.924 8.584C374.318 8.744 374.654 8.98933 374.932 9.32C375.22 9.65067 375.369 10.0827 375.38 10.616C375.38 11.096 375.246 11.528 374.98 11.912C374.713 12.296 374.334 12.6 373.844 12.824C373.364 13.0373 372.809 13.144 372.18 13.144Z" fill="#22343D"/>
</svg>
